<?xml version="1.0" encoding="utf-8"?>
<!-- Generator: Adobe Illustrator 23.0.2, SVG Export Plug-In . SVG Version: 6.00 Build 0)  -->
<svg version="1.1" id="Layer_1" xmlns="http://www.w3.org/2000/svg" xmlns:xlink="http://www.w3.org/1999/xlink" x="0px" y="0px"
	 viewBox="0 0 792 612" style="enable-background:new 0 0 792 612;" xml:space="preserve">
<style type="text/css">
	.st0{fill-rule:evenodd;clip-rule:evenodd;fill:#DC0024;}
	.st1{fill-rule:evenodd;clip-rule:evenodd;fill:#AD1818;}
	.st2{fill-rule:evenodd;clip-rule:evenodd;fill:#FB0A0B;}
	.st3{fill:#FFFFFF;}
</style>
<g>
	<path class="st0" d="M921.37,300.08c-0.24-3,0.11-5.54,1.83-8.37c3.17-5.18,16.98-7.65,22.35-8.06c4.53-0.54,9.6-0.88,14.97-0.99
		c-1.58-0.73-10.52-2.35-12.62-2.65c-13.4-1.97-22.27-1.44-35.35,1.16c-1.33,0.27-5.3,1.07-6.23,1.52
		c4.36,6.62,7.92,10.37,13.44,15.93L921.37,300.08z"/>
	<path class="st1" d="M945.56,283.65c0.03,0,0.07-0.01,0.1-0.01c0.41,4.12,0.45,5.97-1.36,10.07c-3.31,7.5-10.37,12.49-18.45,15.1
		c-0.76,0.25-1.83,0.44-2.46,0.79c4.43,0.6,11.19,0.35,15.57-0.33c14.11-2.19,23.02-12.92,21.61-26.59
		c-0.01-0.01-0.03-0.01-0.04-0.02C955.16,282.77,950.09,283.11,945.56,283.65"/>
	<path class="st2" d="M926.37,308.64c-0.17,0.06-0.34,0.11-0.51,0.17c-0.75,0.24-1.8,0.43-2.43,0.77l-0.03,0.02
		c0.07,0.01,0.14,0.02,0.21,0.03c4.43,0.57,11.05,0.31,15.36-0.36c14.11-2.19,23.02-12.92,21.61-26.59
		c-0.01-0.01-0.03-0.01-0.04-0.02c-2.32,0.05-4.58,0.14-6.77,0.27c-0.34,1.44-0.88,3-1.73,4.91c-4.53,10.27-14.21,17.1-25.27,20.68
		C926.64,308.56,926.5,308.6,926.37,308.64"/>
	<path class="st1" d="M921.66,302.46c-0.01-0.06-0.02-0.13-0.03-0.19 M906.33,282.68c0.02,4.14,0.53,8.4,1.43,12.53
		c0.07,0.3,0.14,0.61,0.21,0.91l0,0.01c0.07,0.3,0.15,0.61,0.22,0.91l0,0c0.05,0.2,0.1,0.39,0.15,0.59l0,0.01
		c0.08,0.29,0.15,0.58,0.23,0.86l0.02,0.07c0.05,0.18,0.1,0.36,0.15,0.54l0.01,0.03c0.03,0.09,0.05,0.19,0.08,0.28l0.02,0.06
		c0.05,0.16,0.1,0.32,0.15,0.49l0.03,0.11c0.08,0.27,0.16,0.53,0.25,0.8l0.04,0.12c0.04,0.14,0.09,0.27,0.13,0.41l0.05,0.14
		c0.03,0.08,0.05,0.16,0.08,0.23c0.03,0.09,0.06,0.18,0.09,0.27c0.03,0.08,0.06,0.16,0.08,0.24c0.02,0.06,0.04,0.11,0.06,0.17
		c0.04,0.11,0.08,0.21,0.11,0.32c0.02,0.07,0.05,0.13,0.07,0.2c0.03,0.07,0.05,0.14,0.08,0.21c0.03,0.07,0.05,0.15,0.08,0.22
		c0.03,0.09,0.07,0.18,0.1,0.27c0.03,0.07,0.05,0.13,0.08,0.2c0.02,0.06,0.05,0.12,0.07,0.18c0.04,0.11,0.08,0.22,0.13,0.32
		c0.02,0.05,0.04,0.11,0.06,0.16c0.04,0.09,0.07,0.18,0.11,0.27c0.02,0.06,0.05,0.12,0.08,0.18c0.03,0.09,0.07,0.17,0.1,0.25
		l0.07,0.16c0.05,0.11,0.09,0.22,0.14,0.33c0.02,0.05,0.04,0.09,0.06,0.14c0.04,0.09,0.08,0.18,0.12,0.27l0.05,0.12
		c0.05,0.11,0.1,0.22,0.15,0.33l0.05,0.12c0.05,0.12,0.1,0.23,0.16,0.35l0.04,0.1c0.05,0.1,0.09,0.19,0.14,0.29l0.05,0.1
		c0.05,0.11,0.11,0.23,0.16,0.34l0.05,0.11c0.06,0.12,0.11,0.23,0.17,0.35l0.03,0.06c0.05,0.1,0.1,0.21,0.16,0.31l0.05,0.09
		c0.06,0.11,0.12,0.23,0.17,0.34l0.05,0.09c0.06,0.11,0.11,0.21,0.17,0.32l0.02,0.04c0.06,0.12,0.12,0.23,0.19,0.35l0.05,0.09
		c0.06,0.11,0.12,0.22,0.19,0.33l0.04,0.07c0.06,0.1,0.12,0.21,0.18,0.31l0.03,0.05c0.06,0.11,0.13,0.22,0.19,0.33l0.05,0.08
		c0.07,0.11,0.13,0.22,0.2,0.33l0.02,0.03c0.06,0.1,0.13,0.21,0.19,0.31l0.03,0.06c0.07,0.11,0.14,0.22,0.2,0.32l0.04,0.07
		c0.07,0.11,0.14,0.22,0.21,0.33c4.36,6.62,7.92,10.37,13.44,15.93l3.85,3.53c0.34,0.28,1.07,0.78,1.27,1.07l-3.51-7
		c-2.54-5.51-4.22-9.37-6.09-15.19c-0.85-2.65-1.64-5.64-2.07-8.54c-0.01-0.06-0.02-0.13-0.03-0.19l0,0
		c-0.01-0.06-0.02-0.13-0.03-0.19v0l0,0c-0.01-0.06-0.02-0.11-0.02-0.17l0-0.01l0-0.01l0,0c-0.01-0.06-0.02-0.11-0.02-0.17l0-0.01
		l0-0.01l-0.02-0.15l0-0.03l0-0.01c-0.01-0.06-0.01-0.11-0.02-0.17l0,0l0-0.01c-0.01-0.05-0.01-0.1-0.02-0.15l0-0.02l0-0.02
		c-0.01-0.05-0.01-0.1-0.02-0.15l0-0.03c-0.01-0.05-0.01-0.1-0.02-0.15l0-0.02l0-0.01c-0.01-0.05-0.01-0.11-0.02-0.16l0-0.01l0-0.01
		c-0.01-0.05-0.01-0.11-0.02-0.16l0-0.01l0-0.01c0-0.05-0.01-0.11-0.01-0.16l0-0.01l0-0.01c0-0.05-0.01-0.11-0.01-0.16l0,0
		l-1.6-1.47C914.26,293.06,910.69,289.3,906.33,282.68z"/>
	<path class="st2" d="M921.66,302.46c-0.01-0.06-0.02-0.13-0.03-0.19 M933.2,332.95l-3.38-6.75c-2.54-5.51-4.22-9.37-6.09-15.19
		c-0.85-2.65-1.64-5.64-2.07-8.54c-0.01-0.06-0.02-0.13-0.03-0.19l0,0c-0.01-0.06-0.02-0.13-0.03-0.19v0l0,0
		c-0.01-0.06-0.02-0.11-0.02-0.17l0-0.01l0-0.01l0,0c-0.01-0.06-0.02-0.11-0.02-0.17l0-0.01l0-0.01l-0.02-0.15l0-0.03l0-0.01
		c-0.01-0.06-0.01-0.11-0.02-0.17l0,0l0-0.01c-0.01-0.05-0.01-0.1-0.02-0.15l0-0.02l0-0.02c-0.01-0.05-0.01-0.1-0.02-0.15l0-0.03
		c-0.01-0.05-0.01-0.1-0.02-0.15l0-0.02l0-0.01c-0.01-0.05-0.01-0.11-0.02-0.16l0-0.01l0-0.01c-0.01-0.05-0.01-0.11-0.02-0.16
		l0-0.01l0-0.01c0-0.05-0.01-0.11-0.01-0.16l0-0.01l0-0.01c0-0.05-0.01-0.11-0.01-0.16l0,0c-0.24-3,0.11-5.54,1.83-8.37
		c3.17-5.18,16.98-7.65,22.35-8.06c4.53-0.54,9.6-0.88,14.97-0.99c-3.07-0.37-6.32-0.66-7.52-0.74c-14.66-0.9-24.37,0.72-38.69,5.31
		c-0.77,0.25-2.34,0.76-3.81,1.28l0.07,0.09l-0.05-0.06c0.35,2.1,0.77,4.2,1.27,6.27c0.09,0.38,0.18,0.76,0.28,1.14l0,0.01
		c0.1,0.38,0.19,0.76,0.29,1.13l0,0.01c0.07,0.25,0.13,0.49,0.2,0.74l0,0.02c0.1,0.36,0.2,0.72,0.31,1.08l0.03,0.09
		c0.07,0.22,0.13,0.45,0.2,0.67l0.01,0.04c0.04,0.12,0.07,0.23,0.11,0.35l0.02,0.07c0.06,0.2,0.13,0.4,0.19,0.61l0.04,0.13
		c0.11,0.33,0.21,0.66,0.32,0.99l0.05,0.15c0.06,0.17,0.11,0.34,0.17,0.51l0.06,0.17c0.03,0.1,0.07,0.19,0.1,0.29
		c0.04,0.11,0.08,0.23,0.12,0.34c0.04,0.1,0.07,0.2,0.11,0.3c0.03,0.07,0.05,0.14,0.08,0.21c0.05,0.13,0.1,0.26,0.14,0.4
		c0.03,0.08,0.06,0.16,0.09,0.24c0.03,0.09,0.06,0.17,0.1,0.26c0.03,0.09,0.07,0.18,0.1,0.28c0.04,0.11,0.08,0.22,0.13,0.34
		c0.03,0.08,0.06,0.17,0.1,0.25c0.03,0.08,0.06,0.15,0.09,0.23c0.05,0.13,0.1,0.27,0.16,0.4c0.03,0.07,0.05,0.14,0.08,0.2
		c0.05,0.11,0.09,0.23,0.14,0.34c0.03,0.08,0.06,0.15,0.09,0.23c0.04,0.11,0.09,0.21,0.13,0.32l0.08,0.2
		c0.06,0.14,0.11,0.27,0.17,0.41c0.03,0.06,0.05,0.12,0.08,0.18c0.05,0.11,0.1,0.23,0.15,0.34l0.06,0.15
		c0.06,0.14,0.12,0.28,0.18,0.41l0.07,0.15c0.06,0.14,0.13,0.29,0.19,0.43l0.05,0.12c0.06,0.12,0.11,0.24,0.17,0.36l0.06,0.13
		c0.07,0.14,0.13,0.28,0.2,0.43l0.06,0.13c0.07,0.15,0.14,0.29,0.21,0.44l0.03,0.07c0.06,0.13,0.13,0.26,0.19,0.39l0.06,0.12
		c0.07,0.14,0.14,0.28,0.21,0.42l0.06,0.12c0.07,0.13,0.14,0.27,0.21,0.4l0.02,0.05c0.08,0.14,0.15,0.29,0.23,0.43l0.06,0.11
		c0.08,0.14,0.15,0.28,0.23,0.42l0.05,0.09c0.07,0.13,0.14,0.26,0.21,0.39l0.03,0.06c0.08,0.14,0.16,0.28,0.23,0.41l0.06,0.1
		c0.08,0.14,0.16,0.28,0.24,0.41l0.03,0.04c0.08,0.13,0.15,0.26,0.23,0.39l0.04,0.07c0.08,0.13,0.16,0.27,0.25,0.4l0.05,0.08
		c0.08,0.14,0.17,0.27,0.25,0.41C924.86,323.37,928.46,327.75,933.2,332.95z"/>
</g>
<g>
	<path class="st3" d="M1099.34,296.31c0.36,0,0.54,0.18,0.54,0.54v9.84c0,0.66,0.05,1.2,0.16,1.64c0.11,0.44,0.28,0.78,0.53,1.04
		c0.25,0.25,0.58,0.44,1,0.54c0.42,0.11,0.95,0.16,1.59,0.16h6.83c0.64,0,1.17-0.05,1.59-0.16c0.42-0.11,0.75-0.29,1-0.54
		c0.25-0.25,0.42-0.6,0.52-1.04c0.1-0.44,0.15-0.98,0.15-1.64v-9.84c0-0.36,0.18-0.54,0.54-0.54h2.69c0.36,0,0.54,0.18,0.54,0.54
		v10.21c0,1.18-0.12,2.19-0.37,3.02c-0.25,0.83-0.65,1.5-1.2,2.02c-0.55,0.52-1.27,0.89-2.15,1.12c-0.88,0.23-1.94,0.35-3.19,0.35
		h-7.1c-1.25,0-2.31-0.12-3.18-0.35c-0.87-0.23-1.58-0.6-2.13-1.12c-0.55-0.52-0.95-1.19-1.21-2.02c-0.25-0.83-0.38-1.84-0.38-3.02
		v-10.21c0-0.36,0.19-0.54,0.57-0.54H1099.34z M1066.39,296.31c0.36,0,0.54,0.18,0.54,0.54v16.18c0,0.36-0.18,0.54-0.54,0.54h-2.66
		c-0.38,0-0.57-0.18-0.57-0.54v-16.18c0-0.36,0.19-0.54,0.57-0.54H1066.39z M1058.34,296.31c0.36,0,0.54,0.18,0.54,0.54v2.34
		c0,0.36-0.18,0.54-0.54,0.54h-12.36c-0.48,0-0.81,0.12-1.01,0.37c-0.2,0.25-0.3,0.58-0.3,1.01v0.84c0,0.92,0.43,1.38,1.28,1.38
		h9.25c1.43,0,2.51,0.37,3.23,1.1c0.72,0.73,1.09,1.78,1.09,3.14v1.97c0,1.2-0.35,2.17-1.06,2.91s-1.81,1.11-3.3,1.11h-13.66
		c-0.38,0-0.57-0.18-0.57-0.54v-2.34c0-0.36,0.19-0.54,0.57-0.54h12.95c0.48,0,0.81-0.12,1.01-0.37c0.2-0.25,0.3-0.58,0.3-1.01
		v-1.01c0-0.92-0.43-1.38-1.28-1.38h-9.25c-1.43,0-2.51-0.37-3.23-1.1c-0.72-0.73-1.09-1.78-1.09-3.14v-1.8
		c0-1.2,0.35-2.17,1.06-2.91c0.71-0.74,1.81-1.11,3.3-1.11H1058.34z M1021.36,296.31c0.26,0,0.46,0.1,0.59,0.3l6.59,8.9l6.63-8.9
		c0.13-0.2,0.33-0.3,0.59-0.3h3.23c0.13,0,0.22,0.05,0.27,0.16c0.05,0.11,0.03,0.22-0.05,0.33l-8.85,11.49v4.74
		c0,0.36-0.18,0.54-0.54,0.54h-2.66c-0.38,0-0.57-0.18-0.57-0.54v-4.74l-8.76-11.49c-0.08-0.12-0.1-0.23-0.06-0.33
		c0.04-0.11,0.14-0.16,0.28-0.16H1021.36z M999.15,296.31c0.36,0,0.54,0.18,0.54,0.54v6.41h11.54v-6.41c0-0.36,0.18-0.54,0.54-0.54
		h2.66c0.38,0,0.57,0.18,0.57,0.54v16.18c0,0.36-0.19,0.54-0.57,0.54h-2.66c-0.36,0-0.54-0.18-0.54-0.54v-6.56h-11.54v6.56
		c0,0.36-0.18,0.54-0.54,0.54h-2.66c-0.38,0-0.57-0.18-0.57-0.54v-16.18c0-0.36,0.19-0.54,0.57-0.54H999.15z M987.35,296.31
		c1.89,0,3.25,0.43,4.07,1.28c0.82,0.86,1.23,2.12,1.23,3.8v1.83c0,1.68-0.41,2.94-1.23,3.8c-0.82,0.85-2.18,1.28-4.07,1.28h-10.21
		v4.74c0,0.36-0.18,0.54-0.54,0.54h-2.66c-0.38,0-0.57-0.18-0.57-0.54v-15.98c0-0.49,0.25-0.74,0.74-0.74H987.35z M977.13,305.04
		h9.45c0.84,0,1.43-0.18,1.78-0.54c0.35-0.36,0.52-0.91,0.52-1.65v-0.94c0-0.74-0.17-1.29-0.52-1.65c-0.35-0.36-0.94-0.54-1.78-0.54
		h-9.13c-0.21,0-0.32,0.1-0.32,0.3V305.04z M1079.59,308.16c-0.07-0.08-0.09-0.21-0.06-0.37s0.15-0.25,0.38-0.25h3.16
		c0.21,0,0.36,0.02,0.44,0.07c0.08,0.05,0.16,0.12,0.25,0.22l1.3,1.89h0.16c0.64,0,1.17-0.05,1.59-0.16c0.42-0.11,0.75-0.29,1-0.54
		c0.25-0.25,0.42-0.6,0.53-1.04c0.11-0.44,0.16-0.97,0.16-1.62v-3.28c0-0.64-0.05-1.18-0.16-1.62c-0.11-0.44-0.28-0.78-0.53-1.04
		c-0.25-0.25-0.58-0.44-1-0.54c-0.42-0.11-0.95-0.16-1.59-0.16h-7.32c-0.64,0-1.17,0.05-1.59,0.16c-0.42,0.11-0.75,0.29-1,0.54
		c-0.25,0.25-0.42,0.6-0.53,1.04c-0.11,0.44-0.16,0.97-0.16,1.62v3.28c0,0.64,0.05,1.18,0.16,1.62c0.11,0.44,0.28,0.78,0.53,1.04
		c0.24,0.25,1.43,0.29,1.84,0.4c1.12,1.55,1.68,2.46,2.6,3.73h-1.13c-1.25,0-3.17-0.12-4.04-0.35c-0.87-0.23-1.58-0.6-2.13-1.12
		c-0.55-0.52-0.95-1.19-1.21-2.02c-0.25-0.83-0.38-1.84-0.38-3.02v-3.82c0-1.18,0.13-2.19,0.38-3.01c0.25-0.82,0.66-1.49,1.21-2.01
		c0.55-0.52,1.26-0.9,2.13-1.13s1.93-0.36,3.18-0.36h7.62c1.25,0,2.31,0.12,3.19,0.36c0.88,0.24,1.59,0.62,2.15,1.13
		c0.55,0.52,0.95,1.19,1.2,2.01c0.25,0.82,0.37,1.83,0.37,3.01v3.82c0,2.01-0.37,3.51-1.12,4.53c-0.75,1.01-1.99,1.63-3.74,1.86
		l1.54,2.04c0.06,0.08,0.09,0.21,0.06,0.37s-0.15,0.25-0.38,0.25h-3.16c-0.21,0-0.36-0.02-0.44-0.07c-0.08-0.05-0.17-0.12-0.25-0.22
		C1083.1,312.95,1081.34,310.58,1079.59,308.16z M1138.64,296.31c0.38,0,0.57,0.18,0.57,0.54v2.34c0,0.36-0.19,0.54-0.57,0.54
		h-10.78c-0.64,0-1.17,0.05-1.59,0.16c-0.42,0.11-0.76,0.29-1.01,0.54c-0.25,0.25-0.43,0.6-0.53,1.04c-0.1,0.44-0.15,0.97-0.15,1.62
		v0.25h13.93c0.36,0,0.54,0.18,0.54,0.54v1.95c0,0.36-0.18,0.54-0.54,0.54h-13.93v0.42c0,0.64,0.05,1.18,0.15,1.62
		c0.1,0.44,0.28,0.78,0.53,1.04c0.25,0.25,0.59,0.44,1.01,0.54s0.95,0.16,1.59,0.16h10.78c0.38,0,0.57,0.18,0.57,0.54v2.34
		c0,0.36-0.19,0.54-0.57,0.54h-10.85c-1.25,0-2.31-0.12-3.18-0.35c-0.87-0.23-1.58-0.6-2.13-1.12c-0.55-0.52-0.95-1.19-1.21-2.02
		c-0.25-0.83-0.38-1.84-0.38-3.02v-4.24c0-1.18,0.13-2.19,0.38-3.01c0.26-0.82,0.66-1.49,1.21-2.01c0.55-0.52,1.26-0.9,2.13-1.13
		c0.87-0.24,1.93-0.36,3.18-0.36H1138.64z"/>
	<path class="st3" d="M1201.91,296.31c0.36,0,0.54,0.18,0.54,0.54v2.42c0,0.38-0.18,0.57-0.54,0.57h-10.98
		c-0.64,0-1.17,0.05-1.59,0.16c-0.42,0.11-0.75,0.29-1,0.54c-0.25,0.25-0.42,0.6-0.53,1.02c-0.11,0.43-0.16,0.97-0.16,1.63v3.5
		c0,0.66,0.05,1.2,0.16,1.64c0.11,0.44,0.28,0.78,0.53,1.04c0.25,0.25,0.58,0.44,1,0.54c0.42,0.11,0.95,0.16,1.59,0.16h10.98
		c0.36,0,0.54,0.18,0.54,0.54v2.42c0,0.36-0.18,0.54-0.54,0.54h-11.12c-1.25,0-2.31-0.12-3.18-0.35c-0.87-0.23-1.58-0.6-2.13-1.12
		c-0.55-0.52-0.95-1.19-1.21-2.02c-0.25-0.83-0.38-1.84-0.38-3.02v-4.24c0-1.18,0.13-2.19,0.38-3.01c0.25-0.82,0.66-1.49,1.21-2.01
		c0.55-0.52,1.26-0.9,2.13-1.13c0.87-0.24,1.93-0.36,3.18-0.36H1201.91z M1162.39,304.73v8.3c0,0.36-0.18,0.54-0.54,0.54h-2.59
		c-0.38,0-0.57-0.18-0.57-0.54v-13.42L1162.39,304.73z M1153.72,296.31c0.36,0,0.54,0.18,0.54,0.54v16.18
		c0,0.36-0.18,0.54-0.54,0.54h-2.66c-0.38,0-0.57-0.18-0.57-0.54v-16.18c0-0.36,0.19-0.54,0.57-0.54H1153.72z M1161.51,296.31h1.58
		h0.02h1.56c0.21,0,0.36,0.02,0.44,0.07c0.08,0.05,0.16,0.12,0.25,0.22l2.75,3.99l7.02,9.2c0.07,0.12,0.17,0.17,0.32,0.17h0.22
		c0.13,0,0.2-0.08,0.2-0.25v-12.87c0-0.36,0.18-0.54,0.54-0.54h2.59c0.36,0,0.54,0.18,0.54,0.54v14.16c0,1-0.18,1.68-0.54,2.03
		c-0.36,0.35-0.92,0.53-1.68,0.53h-2.12c-0.38,0-0.69-0.02-0.95-0.05c-0.25-0.03-0.48-0.1-0.68-0.2c-0.2-0.1-0.39-0.24-0.58-0.43
		c-0.19-0.19-0.41-0.45-0.65-0.78l-5.39-7.05c-2.07-2.93-4.21-5.82-6.27-8.75c0.08,0,0.16-0.01,0.24-0.01H1161.51z"/>
	<path class="st2" d="M1208.8,310.12c0.36,0,0.54,0.18,0.54,0.54v2.37c0,0.36-0.18,0.54-0.54,0.54h-2.42
		c-0.38,0-0.57-0.18-0.57-0.54v-2.37c0-0.36,0.19-0.54,0.57-0.54H1208.8z"/>
</g>
</svg>
